# xmcd
#
# Track frame offsets: 
#        150
#        17162
#        42287
#        62162
#        93340
#        111837
#        132662
#        152165
#
# Disc length: 2376 seconds
#
# Revision: 5
# Processed by: cddbd v1.5.2PL0 Copyright (c) Steve Scherf et al.
# Submitted via: ExactAudioCopy v0.95a5
#
DISCID=6a094608
DTITLE=Black Sabbath - Heaven And Hell
DYEAR=1980
DGENRE=Heavy Metal
TTITLE0=Neon Knights
TTITLE1=Children Of The Sea
TTITLE2=Lady Evil
TTITLE3=Heaven And Hell
TTITLE4=Wishing Well
TTITLE5=Die Young
TTITLE6=Walk Away
TTITLE7=Lonely Is The Word
EXTD=Vertigo
EXTT0=
EXTT1=
EXTT2=
EXTT3=
EXTT4=
EXTT5=
EXTT6=
EXTT7=
PLAYORDER=
